<?xml version="1.0" encoding="UTF-8"?>
<svg id="Layer_1" data-name="Layer 1" xmlns="http://www.w3.org/2000/svg" viewBox="0 0 64.83 64.83">
  <defs>
    <style>
      .cls-1 {
        fill: #fff;
        stroke: #fff;
        stroke-miterlimit: 10;
        stroke-width: .83px;
      }
    </style>
  </defs>
  <g id="SVGRepo_iconCarrier" data-name="SVGRepo iconCarrier">
    <g>
      <rect class="cls-1" x="9.71" y="30.35" width="2.06" height="2.06"/>
      <rect class="cls-1" x="7.64" y="27.25" width="2.06" height="2.06"/>
      <rect class="cls-1" x="16.93" y="32.42" width="2.06" height="2.06"/>
      <rect class="cls-1" x="21.06" y="30.35" width="2.06" height="2.06"/>
      <path class="cls-1" d="m51,60.29c3.42,0,6.19-2.78,6.19-6.19s-2.78-6.19-6.19-6.19-6.19,2.78-6.19,6.19,2.78,6.19,6.19,6.19Zm-3.96-7.29l1.66.96,1.03-1.79-1.67-.97c.52-.53,1.17-.9,1.91-1.09v1.92h2.06v-1.92c.73.19,1.39.57,1.91,1.09l-1.67.96,1.03,1.79,1.66-.96c.1.35.17.71.17,1.1s-.07.74-.17,1.1l-1.66-.96-1.03,1.79,1.67.97c-.52.53-1.18.9-1.91,1.09v-1.92h-2.06v1.92c-.73-.19-1.39-.57-1.91-1.09l1.67-.96-1.03-1.79-1.66.96c-.1-.35-.17-.71-.17-1.1,0-.38.07-.74.17-1.1Z"/>
      <path class="cls-1" d="m62.35,62.35v-18.58h-2.06v-6.19h-3.1v-11.78c.65-1.08,1.03-2.35,1.03-3.7,0-2.56-1.35-4.81-3.36-6.1l-9.33-10.43c-.89-2.98-3.66-5.15-6.92-5.15-2.54,0-4.77,1.32-6.06,3.3l-12.02,11.42c-1.07,1.02-1.67,2.39-1.69,3.87-.01,1.08.29,2.11.86,2.99l-5.56,5.56,1.46,1.46,5.53-5.53c.94.68,2.04,1.03,3.16,1.03,1.32,0,2.64-.48,3.69-1.45l9.08-8.38c.31.07.63.12.95.14l5.8,6.53c-.02.24-.04.48-.04.73,0,1.35.38,2.62,1.03,3.7v11.78h-3.1v6.19h-2.06v18.58h-18.58v-18.58h-2.06v-2.06h2.06v-2.06h-2.17c-.48-2.35-2.56-4.13-5.06-4.13H4.55v4.13h-2.06v2.06h2.06v2.06h-2.06v18.58H.42v2.06h64v-2.06h-2.06ZM6.61,37.58h7.23c1.34,0,2.48.87,2.91,2.06H6.61v-2.06Zm0,4.13h10.32v2.06H6.61v-2.06Zm12.39,10.32h-2.06v2.06h2.06v8.26H4.55v-8.26h10.32v-2.06H4.55v-6.19h14.45v6.19Zm37.16-29.94c0,2.85-2.32,5.16-5.16,5.16s-5.16-2.32-5.16-5.16,2.32-5.16,5.16-5.16,5.16,2.32,5.16,5.16Zm-1.03,5.92v9.56h-8.26v-9.56c1.17.82,2.59,1.3,4.13,1.3s2.96-.49,4.13-1.3Zm-28.55-6.46c-1.34,1.23-3.39,1.19-4.68-.09-.65-.65-1-1.51-.99-2.43s.39-1.77,1.05-2.4l9.43-8.96c.01,2.63,1.43,4.92,3.54,6.18l-8.36,7.71Zm12.03-8.75c-2.84,0-5.15-2.32-5.15-5.16s2.32-5.16,5.16-5.16,5.16,2.32,5.16,5.16-2.31,5.16-5.16,5.16h-.01Zm5.87,6.2l-3.92-4.41c2.65-.74,4.69-2.96,5.17-5.71l5.36,5.99s-.06,0-.08,0c-2.88,0-5.36,1.7-6.52,4.14Zm-.7,20.63h14.45v4.13h-14.45v-4.13Zm16.52,22.71h-18.58v-16.52h18.58v16.52Z"/>
    </g>
  </g>
</svg>