<?xml version="1.0" encoding="UTF-8"?>
<svg xmlns="http://www.w3.org/2000/svg" xmlns:xlink="http://www.w3.org/1999/xlink" width="60px" height="60px" viewBox="0 0 60 60" version="1.1">
<g id="surface1">
<path style=" stroke:none;fill-rule:nonzero;fill:rgb(3.137255%,41.568627%,84.313725%);fill-opacity:1;" d="M 54.765625 1.964844 L 25.949219 1.964844 C 25.230469 1.964844 24.652344 2.550781 24.652344 3.261719 L 24.652344 13.394531 L 26.09375 12.503906 C 26.460938 12.277344 26.851562 12.121094 27.246094 12.039062 L 27.246094 4.566406 L 53.460938 4.566406 L 53.460938 23.316406 L 27.253906 23.316406 L 27.253906 20.28125 L 24.652344 21.898438 L 24.652344 24.621094 C 24.652344 25.34375 25.238281 25.921875 25.949219 25.921875 L 54.757812 25.921875 C 55.476562 25.921875 56.054688 25.335938 56.054688 24.621094 L 56.054688 3.261719 C 56.0625 2.550781 55.476562 1.964844 54.765625 1.964844 Z M 54.765625 1.964844 "/>
<path style=" stroke:none;fill-rule:nonzero;fill:rgb(3.137255%,41.568627%,84.313725%);fill-opacity:1;" d="M 35.859375 9.179688 C 35.511719 8.746094 34.890625 8.671875 34.453125 9.015625 L 29.976562 12.546875 C 30.40625 12.824219 30.78125 13.199219 31.066406 13.664062 C 31.148438 13.792969 31.214844 13.925781 31.28125 14.070312 L 35.691406 10.589844 C 36.128906 10.246094 36.203125 9.613281 35.859375 9.179688 Z M 35.859375 9.179688 "/>
<path style=" stroke:none;fill-rule:nonzero;fill:rgb(3.137255%,41.568627%,84.313725%);fill-opacity:1;" d="M 17.984375 3.742188 C 17.984375 5.808594 16.308594 7.484375 14.242188 7.484375 C 12.175781 7.484375 10.5 5.808594 10.5 3.742188 C 10.5 1.675781 12.175781 0 14.242188 0 C 16.308594 0 17.984375 1.675781 17.984375 3.742188 Z M 17.984375 3.742188 "/>
<path style=" stroke:none;fill-rule:nonzero;fill:rgb(3.137255%,41.568627%,84.313725%);fill-opacity:1;" d="M 29.535156 14.617188 C 29.011719 13.769531 27.890625 13.507812 27.046875 14.03125 L 23.386719 16.304688 C 23.371094 13.273438 23.378906 14.878906 23.371094 12.929688 C 23.355469 10.582031 21.441406 8.675781 19.09375 8.675781 L 17.324219 8.675781 C 15.808594 12.613281 16.296875 11.152344 15.007812 14.488281 L 15.546875 12.128906 C 15.585938 11.949219 15.554688 11.765625 15.472656 11.609375 L 14.738281 10.273438 L 15.390625 9.089844 C 15.488281 8.910156 15.359375 8.699219 15.15625 8.699219 L 13.363281 8.699219 C 13.164062 8.699219 13.035156 8.917969 13.132812 9.089844 L 13.785156 10.273438 L 13.050781 11.609375 C 12.96875 11.765625 12.9375 11.949219 12.976562 12.121094 L 13.449219 14.484375 C 13.191406 13.828125 11.445312 9.292969 11.203125 8.671875 L 9.390625 8.671875 C 7.042969 8.671875 5.128906 10.574219 5.113281 12.921875 L 5.046875 26.191406 C 5.039062 27.1875 5.851562 27.996094 6.847656 28.003906 L 6.855469 28.003906 C 7.84375 28.003906 8.65625 27.203125 8.664062 26.203125 L 8.730469 12.9375 L 8.730469 12.929688 C 8.730469 12.734375 8.894531 12.578125 9.089844 12.578125 C 9.285156 12.578125 9.441406 12.742188 9.441406 12.9375 L 9.441406 31.734375 C 11.09375 31.664062 12.628906 32.257812 13.777344 33.308594 L 13.777344 25.972656 L 14.714844 25.972656 L 14.714844 34.378906 C 15.375 35.347656 15.757812 36.515625 15.757812 37.777344 C 15.757812 38.925781 15.433594 39.996094 14.878906 40.914062 C 15.449219 40.914062 16.003906 40.988281 16.53125 41.128906 C 17.242188 40.515625 18.097656 40.058594 19.042969 39.824219 C 19.042969 7.085938 19.003906 27.328125 19.003906 12.9375 C 19.003906 12.726562 19.171875 12.5625 19.378906 12.5625 C 19.589844 12.5625 19.753906 12.726562 19.753906 12.9375 C 19.761719 14.203125 19.777344 18.164062 19.785156 19.539062 C 19.785156 20.191406 20.144531 20.789062 20.714844 21.105469 C 21.285156 21.421875 21.984375 21.40625 22.539062 21.058594 L 28.933594 17.085938 C 29.796875 16.574219 30.058594 15.464844 29.535156 14.617188 Z M 29.535156 14.617188 "/>
<path style=" stroke:none;fill-rule:nonzero;fill:rgb(3.137255%,41.568627%,84.313725%);fill-opacity:1;" d="M 54.261719 37.828125 C 54.261719 40.015625 52.488281 41.789062 50.300781 41.789062 C 48.117188 41.789062 46.34375 40.015625 46.34375 37.828125 C 46.34375 35.644531 48.117188 33.871094 50.300781 33.871094 C 52.488281 33.871094 54.261719 35.644531 54.261719 37.828125 Z M 54.261719 37.828125 "/>
<path style=" stroke:none;fill-rule:nonzero;fill:rgb(3.137255%,41.568627%,84.313725%);fill-opacity:1;" d="M 59.941406 47.558594 C 59.925781 45.074219 57.898438 43.058594 55.417969 43.058594 C 54.34375 43.058594 46.441406 43.058594 45.480469 43.058594 C 45.90625 43.882812 46.148438 44.820312 46.148438 45.816406 C 46.148438 46.875 45.863281 47.976562 45.269531 48.953125 C 47.484375 49.042969 49.425781 50.226562 50.558594 51.988281 L 55.3125 51.988281 L 55.3125 47.601562 C 55.3125 47.386719 55.484375 47.210938 55.703125 47.203125 C 55.921875 47.199219 56.101562 47.363281 56.113281 47.578125 L 56.136719 51.988281 L 59.960938 51.988281 Z M 59.941406 47.558594 "/>
<path style=" stroke:none;fill-rule:nonzero;fill:rgb(3.137255%,41.568627%,84.313725%);fill-opacity:1;" d="M 34.042969 45.816406 C 34.042969 44.804688 34.289062 43.851562 34.734375 43.011719 C 32.152344 43.011719 29.121094 43.011719 25.914062 43.011719 C 26.316406 43.824219 26.550781 44.746094 26.550781 45.710938 C 26.550781 46.851562 26.226562 47.933594 25.671875 48.847656 C 27.496094 48.855469 29.175781 49.613281 30.390625 50.871094 C 31.566406 49.726562 33.171875 49.003906 34.941406 48.996094 C 34.328125 48 34.042969 46.890625 34.042969 45.816406 Z M 34.042969 45.816406 "/>
<path style=" stroke:none;fill-rule:nonzero;fill:rgb(3.137255%,41.568627%,84.313725%);fill-opacity:1;" d="M 31.035156 33.824219 C 28.84375 33.824219 27.074219 35.59375 27.074219 37.785156 C 27.074219 39.96875 28.84375 41.746094 31.035156 41.746094 C 33.203125 41.746094 34.996094 39.988281 34.996094 37.785156 C 34.996094 35.601562 33.226562 33.824219 31.035156 33.824219 Z M 31.035156 33.824219 "/>
<path style=" stroke:none;fill-rule:nonzero;fill:rgb(3.137255%,41.568627%,84.313725%);fill-opacity:1;" d="M 14.4375 45.710938 C 14.4375 44.746094 14.671875 43.828125 15.074219 43.019531 C 14.902344 43.011719 15.621094 43.011719 4.589844 43.011719 C 2.121094 43.011719 0.0820312 45.023438 0.0664062 47.511719 L 0.046875 51.988281 C 1.792969 51.988281 2.144531 51.988281 3.871094 51.988281 L 3.890625 47.535156 C 3.890625 47.316406 4.074219 47.136719 4.289062 47.136719 C 4.507812 47.136719 4.6875 47.316406 4.6875 47.535156 L 4.6875 51.988281 L 10.042969 51.988281 C 11.199219 50.144531 13.183594 48.984375 15.34375 48.890625 C 14.761719 47.949219 14.4375 46.859375 14.4375 45.710938 Z M 14.4375 45.710938 "/>
<path style=" stroke:none;fill-rule:nonzero;fill:rgb(3.137255%,41.568627%,84.313725%);fill-opacity:1;" d="M 9.703125 33.824219 C 7.515625 33.824219 5.746094 35.59375 5.746094 37.785156 C 5.746094 39.960938 7.507812 41.746094 9.703125 41.746094 C 11.878906 41.746094 13.664062 39.984375 13.664062 37.785156 C 13.664062 35.601562 11.886719 33.824219 9.703125 33.824219 Z M 9.703125 33.824219 "/>
<path style=" stroke:none;fill-rule:nonzero;fill:rgb(3.137255%,41.568627%,84.313725%);fill-opacity:1;" d="M 49.515625 55.523438 C 49.5 53.039062 47.476562 51.023438 44.992188 51.023438 C 44.730469 51.023438 35.273438 51.023438 34.972656 51.023438 C 32.488281 51.023438 30.328125 53.039062 30.324219 55.523438 L 30.292969 55.417969 C 30.277344 52.941406 28.261719 50.917969 25.769531 50.917969 C 22.898438 50.917969 18.765625 50.917969 15.75 50.917969 C 13.265625 50.917969 11.109375 52.933594 11.101562 55.417969 L 11.078125 60 L 14.902344 60 L 14.925781 55.441406 C 14.925781 55.253906 15.082031 55.09375 15.269531 55.09375 C 15.457031 55.09375 15.613281 55.253906 15.613281 55.441406 L 15.613281 60 C 17.859375 60 23.640625 60 25.738281 60 L 25.738281 55.441406 C 25.738281 55.238281 25.90625 55.074219 26.109375 55.074219 C 26.308594 55.074219 26.476562 55.238281 26.476562 55.441406 L 26.496094 60 C 27.277344 60 33.324219 60 34.132812 60 L 34.15625 55.546875 C 34.15625 55.359375 34.3125 55.199219 34.5 55.199219 C 34.6875 55.199219 34.84375 55.359375 34.84375 55.546875 L 34.84375 60 C 37.085938 60 42.871094 60 44.96875 60 L 44.96875 55.546875 C 44.96875 55.34375 45.136719 55.175781 45.335938 55.175781 C 45.539062 55.175781 45.703125 55.34375 45.703125 55.546875 L 45.726562 60 L 49.550781 60 Z M 49.515625 55.523438 "/>
<path style=" stroke:none;fill-rule:nonzero;fill:rgb(3.137255%,41.568627%,84.313725%);fill-opacity:1;" d="M 24.621094 45.699219 C 24.621094 47.910156 22.828125 49.703125 20.617188 49.703125 C 18.40625 49.703125 16.613281 47.910156 16.613281 45.699219 C 16.613281 43.484375 18.40625 41.691406 20.617188 41.691406 C 22.828125 41.691406 24.621094 43.484375 24.621094 45.699219 Z M 24.621094 45.699219 "/>
<path style=" stroke:none;fill-rule:nonzero;fill:rgb(3.137255%,41.568627%,84.313725%);fill-opacity:1;" d="M 42.917969 42.96875 C 41.355469 41.40625 38.820312 41.40625 37.253906 42.96875 C 35.691406 44.535156 35.691406 47.070312 37.253906 48.632812 C 38.820312 50.199219 41.355469 50.199219 42.917969 48.632812 C 44.484375 47.070312 44.484375 44.535156 42.917969 42.96875 Z M 42.917969 42.96875 "/>
</g>
</svg>
